<svg width="74" height="74" viewBox="0 0 74 74" fill="none" xmlns="http://www.w3.org/2000/svg">
<path d="M64.1214 0H9.37859C5.85579 0 3 2.86933 3 6.40882V61.411C3 64.9505 5.85579 67.8198 9.37859 67.8198H64.1214C67.6442 67.8198 70.5 64.9505 70.5 61.411V6.40882C70.5 2.86933 67.6442 0 64.1214 0Z" fill="#777F85"/>
<path d="M62.3936 5.82715H11.1024C9.83072 5.82715 8.7998 6.86295 8.7998 8.14069V59.6748C8.7998 60.9526 9.83072 61.9884 11.1024 61.9884H62.3936C63.6653 61.9884 64.6962 60.9526 64.6962 59.6748V8.14069C64.6962 6.86295 63.6653 5.82715 62.3936 5.82715Z" fill="#AAB4BD"/>
<path d="M10.2197 67.8198L11.9433 73.2605H19.9233L21.5564 67.8198H10.2197Z" fill="#4D4D4F"/>
<path d="M63.2791 67.8198L61.5555 73.2605H53.571L51.9424 67.8198H63.2791Z" fill="#4D4D4F"/>
<path d="M64.9895 12.8447H64.406C63.3641 12.8447 62.5195 13.6933 62.5195 14.7401V24.1852C62.5195 25.2319 63.3641 26.0805 64.406 26.0805H64.9895C66.0314 26.0805 66.876 25.2319 66.876 24.1852V14.7401C66.876 13.6933 66.0314 12.8447 64.9895 12.8447Z" fill="#4D4D4F"/>
<path d="M64.9895 41.7393H64.406C63.3641 41.7393 62.5195 42.5878 62.5195 43.6346V53.0797C62.5195 54.1265 63.3641 54.9751 64.406 54.9751H64.9895C66.0314 54.9751 66.876 54.1265 66.876 53.0797V43.6346C66.876 42.5878 66.0314 41.7393 64.9895 41.7393Z" fill="#4D4D4F"/>
<path d="M36.7474 52.9568C47.2184 52.9568 55.7068 44.4282 55.7068 33.9076C55.7068 23.387 47.2184 14.8584 36.7474 14.8584C26.2765 14.8584 17.7881 23.387 17.7881 33.9076C17.7881 44.4282 26.2765 52.9568 36.7474 52.9568Z" fill="#E6E6E6"/>
<path d="M48.6487 36.7088C50.1908 30.1028 46.111 23.4915 39.5361 21.9421C32.9613 20.3927 26.3811 24.4918 24.839 31.0978C23.2969 37.7039 27.3767 44.3151 33.9516 45.8646C40.5265 47.414 47.1066 43.3148 48.6487 36.7088Z" fill="#4D4D4F"/>
<path d="M36.7486 20.0127L34.8486 17.0083H38.6486L36.7486 20.0127Z" fill="#4D4D4F"/>
<path d="M37.1824 24.1216H36.3184V26.1079H37.1824V24.1216Z" fill="#E1E1E1"/>
<path d="M31.3709 25.7368L30.6719 26.2471L31.8339 27.854L32.5329 27.3437L31.3709 25.7368Z" fill="#E1E1E1"/>
<path d="M27.6156 30.4688L27.3486 31.2943L29.2288 31.9081L29.4958 31.0826L27.6156 30.4688Z" fill="#E1E1E1"/>
<path d="M29.2289 35.9097L27.3486 36.5231L27.6155 37.3489L29.4958 36.7354L29.2289 35.9097Z" fill="#E1E1E1"/>
<path d="M31.8332 39.9824L30.6709 41.5892L31.3698 42.0996L32.5321 40.4928L31.8332 39.9824Z" fill="#E1E1E1"/>
<path d="M37.1824 41.7119H36.3184V43.6982H37.1824V41.7119Z" fill="#E1E1E1"/>
<path d="M41.6688 39.9663L40.9697 40.4766L42.1317 42.0835L42.8308 41.5732L41.6688 39.9663Z" fill="#E1E1E1"/>
<path d="M44.269 35.9131L44.002 36.7388L45.8821 37.3526L46.1491 36.5269L44.269 35.9131Z" fill="#E1E1E1"/>
<path d="M45.8842 30.4751L44.0039 31.0886L44.2708 31.9143L46.151 31.3008L45.8842 30.4751Z" fill="#E1E1E1"/>
<path d="M42.1281 25.7422L40.9658 27.3489L41.6648 27.8593L42.827 26.2526L42.1281 25.7422Z" fill="#E1E1E1"/>
<path d="M11.0057 36.5659L11.7162 34.0045C11.7162 34.0045 11.0448 33.3226 11.0057 32.7456C10.9731 32.2644 11.0787 31.9428 11.361 31.5734C11.5755 31.2927 11.8741 31.1209 12.0714 31.0525C12.2688 30.9841 12.6442 30.9674 12.9793 31.0959C13.3228 31.2276 13.5208 31.3757 13.7292 31.7037C13.9821 32.1016 14.0495 32.4425 13.9661 32.9192C13.8763 33.4321 13.2556 34.0045 13.2556 34.0045L13.9661 36.5225C13.9661 36.5225 13.9027 36.7379 13.8476 36.8263C13.7503 36.9828 13.4924 37 13.4924 37H11.4004C11.4004 37 11.207 36.9282 11.1241 36.8263C11.0552 36.7416 11.0057 36.5659 11.0057 36.5659Z" fill="#4D4D4F"/>
</svg>
